<svg width="46" height="46" viewBox="0 0 46 46" fill="none" xmlns="http://www.w3.org/2000/svg">
  <circle cx="23" cy="23" r="23" fill="#E83B4F"/>
  <path d="M16.0438 31.077C15.2326 30.4431 14.7509 29.9663 14.1726 29.1628C14.1678 28.2042 14.141 27.7561 14.0834 27.0579C13.9587 25.3524 13.9587 25.3524 13.9148 24.7654L11.0913 24.7454C11.2049 25.211 11.2736 25.5411 11.3419 26.0969C11.5637 27.9033 11.5773 29.6225 11.4066 31.4489C11.2291 33.2197 11.0048 34.15 10.3831 35.7497C11.4587 36.2382 12.0725 36.6425 12.9252 37.3841C13.5299 35.6454 13.8419 34.2812 14.0234 32.3124C15.468 33.9687 17.2022 34.997 19.2227 35.3696C21.4411 35.746 23.8584 35.6749 29.1666 35.0231C30.1115 34.9071 32.4425 34.5927 36.1563 34.0521C36.1452 32.8122 36.2051 32.3817 36.6113 30.8649C34.033 31.4635 31.1876 31.954 27.2412 32.4385C22.7668 32.9879 20.8809 33.022 19.0482 32.57L18.5125 28.2067L19.7909 28.0498C20.8191 27.9235 21.3228 27.8899 22.0624 27.9401L21.711 25.0776C21.002 25.2775 20.5052 25.3667 19.4769 25.493L18.1985 25.6499L17.8061 22.4539L18.89 22.3209C20.1406 22.1673 20.7832 22.1166 21.495 22.1703L21.2493 20.1693C22.0328 20.8066 22.3966 21.2415 22.9504 22.0762C24.7627 20.7535 25.8842 19.3181 26.4088 17.6175C26.7726 16.4444 26.9174 15.3264 26.952 13.7706L30.0925 13.385C30.3065 15.5874 30.3318 16.7127 30.1704 17.4659C30.086 17.9277 29.773 18.1354 29.0504 18.2241C28.4946 18.2923 27.8208 18.3186 26.8032 18.3025C27.3673 19.2206 27.4985 19.5995 27.8183 21.0553C28.85 20.9569 29.0723 20.9296 29.4058 20.8886C32.2127 20.544 32.9958 19.799 33.1226 17.3856C33.1519 16.7049 33.0495 14.2632 32.9379 12.8946C32.7926 11.0223 32.7824 10.939 32.7839 10.2617C32.2973 10.4343 31.4704 10.5923 30.0252 10.7697L23.4109 11.5818C22.1881 11.732 21.2364 11.7924 20.4446 11.7768L20.7994 14.6671C21.3694 14.4843 21.8662 14.3951 22.9223 14.2654L24.0617 14.1255C24.1076 15.4175 23.9388 16.341 23.4922 17.2986C23.0002 18.3463 22.4015 18.984 21.1704 19.7558L21.1055 19.2278C20.48 19.4174 19.872 19.5203 18.677 19.667L17.204 19.8479L16.8696 17.1243L17.8145 17.0083C18.954 16.8684 19.5132 16.828 20.305 16.8436L19.9467 13.9255C19.3212 14.1151 18.7965 14.2078 17.4903 14.3682L16.5454 14.4842L16.4533 13.7338C16.3032 12.511 16.2593 11.924 16.2851 11.2155L13.1169 11.6045C13.3134 12.2857 13.4407 12.8625 13.5908 14.0853L13.6829 14.8356L12.0155 15.0404C10.7371 15.1974 10.0944 15.248 9.44159 15.2154L9.79989 18.1334C10.5922 17.9233 11.2002 17.8205 12.3396 17.6806L14.0071 17.4758L14.3415 20.1994L12.2572 20.4553C10.7564 20.6396 10.1416 20.6868 9.40539 20.6644L9.7671 23.6103C10.4204 23.4172 11.2196 23.2627 12.5535 23.0989L15.027 22.7952L16.0438 31.077ZM23.1238 28.5433C23.291 29.905 23.3383 30.5199 23.3227 31.3117C24.1462 31.1259 24.9487 30.9992 26.3383 30.8286L32.0077 30.1324C33.2305 29.9823 34.0677 29.9077 34.9395 29.8853C34.743 29.2042 34.6679 28.5928 34.4768 27.0364L34.0844 23.8405C33.9036 22.3675 33.8319 21.7839 33.8475 20.9921C32.9718 21.2124 32.1693 21.3392 30.8075 21.5064L24.7768 22.2469C23.5262 22.4004 22.9948 22.4375 22.262 22.4428C22.4136 22.9884 22.4926 23.4019 22.6529 24.7081L23.1238 28.5433ZM25.4837 24.558L31.1532 23.8618L31.6104 27.5859L25.941 28.282L25.4837 24.558Z" fill="white"/>
</svg>
