<svg width="375px" height="44" viewBox="0 0 375 44" fill="none" xmlns="http://www.w3.org/2000/svg">
  <rect width="375" height="44" fill="white"/>
  <path d="M40.26 29H51.92V26.3H44.22L51.92 17.34V15H40.5V17.7H47.96L40.26 26.66V29ZM60.6802 29.22C64.4402 29.22 66.8202 27.14 66.8202 22.9V15H63.7402V23.02C63.7402 25.24 62.6002 26.38 60.7202 26.38C58.8402 26.38 57.7002 25.2 57.7002 22.92V15H54.6202V23C54.6202 27.12 56.9202 29.22 60.6802 29.22ZM69.9573 29H76.6173C79.7773 29 81.8573 27.72 81.8573 25.16V25.12C81.8573 23.24 80.8573 22.3 79.2373 21.68C80.2373 21.12 81.0773 20.24 81.0773 18.66V18.62C81.0773 17.66 80.7573 16.88 80.1173 16.24C79.3173 15.44 78.0573 15 76.4573 15H69.9573V29ZM72.9573 20.66V17.7H75.9973C77.2973 17.7 78.0173 18.22 78.0173 19.14V19.18C78.0173 20.22 77.1573 20.66 75.7973 20.66H72.9573ZM72.9573 26.3V23.22H76.5173C78.0973 23.22 78.7973 23.8 78.7973 24.74V24.78C78.7973 25.82 77.9773 26.3 76.6173 26.3H72.9573ZM91.1909 29.24C95.5109 29.24 98.6509 25.98 98.6509 22V21.96C98.6509 17.98 95.5509 14.76 91.2309 14.76C86.9109 14.76 83.7709 18.02 83.7709 22V22.04C83.7709 26.02 86.8709 29.24 91.1909 29.24ZM91.2309 26.4C88.7509 26.4 86.9909 24.4 86.9909 22V21.96C86.9909 19.56 88.7109 17.6 91.1909 17.6C93.6709 17.6 95.4309 19.6 95.4309 22V22.04C95.4309 24.44 93.7109 26.4 91.2309 26.4ZM101.383 29H104.463V24.52H106.843H106.883L109.883 29H113.483L110.063 24C111.843 23.34 113.063 21.92 113.063 19.66V19.62C113.063 18.3 112.643 17.2 111.863 16.42C110.943 15.5 109.563 15 107.783 15H101.383V29ZM104.463 21.8V17.78H107.523C109.023 17.78 109.943 18.46 109.943 19.78V19.82C109.943 21 109.083 21.8 107.583 21.8H104.463ZM114.636 29H117.776L119.056 25.86H124.976L126.256 29H129.476L123.476 14.9H120.636L114.636 29ZM120.156 23.14L122.016 18.6L123.876 23.14H120.156Z" fill="#F8AF6F"/>
  <circle cx="21.5" cy="22.5" r="8" stroke="#F8AF6F" stroke-width="3"/>
  <path d="M22 16V22H28" stroke="#F8AF6F" stroke-width="3" stroke-linejoin="round"/>
</svg>
